<?xml version="1.0" encoding="UTF-8"?>
<!DOCTYPE svg PUBLIC "-//W3C//DTD SVG 1.1//EN" "http://www.w3.org/Graphics/SVG/1.1/DTD/svg11.dtd">
<!-- Creator: CorelDRAW 2019 (64 Bit Versão de avaliação) -->
<svg xmlns="http://www.w3.org/2000/svg" xml:space="preserve" width="58.548mm" height="72.4657mm" version="1.1" style="shape-rendering:geometricPrecision; text-rendering:geometricPrecision; image-rendering:optimizeQuality; fill-rule:evenodd; clip-rule:evenodd"
viewBox="0 0 5772.12 7144.24"
 xmlns:xlink="http://www.w3.org/1999/xlink">
 <defs>
  <style type="text/css">
   <![CDATA[
    .fil1 {fill:#006633}
    .fil0 {fill:#00E600}
    .fil2 {fill:white}
    .fil3 {fill:#006633;fill-rule:nonzero}
    .fil4 {fill:red;fill-rule:nonzero}
   ]]>
  </style>
 </defs>
 <g id="Camada_x0020_1">
  <metadata id="CorelCorpID_0Corel-Layer"/>
  <g id="_2001880969152">
   <g>
    <polygon class="fil0" points="2886.18,0 515.2,794.2 915.57,3957.72 2886.18,4977.25 "/>
    <polygon class="fil1" points="2885.97,0 5256.95,794.2 4856.59,3957.72 2885.97,4977.25 "/>
    <path class="fil2" d="M2886.18 942.42l143.49 80.68 951.23 387.33 0 2139.66c0,59.52 -48.7,119.26 -108.23,132.75l-986.49 223.48 0 -202.85 798.94 -181c48.21,-10.91 87.66,-61.9 87.66,-113.27l0 -1714.34 -666.07 150.89c-84.71,19.19 -154.02,-34.42 -154.02,-119.13l0 -530.88 -66.51 -50.47 0 -202.86zm861.81 602.09c-11.1,6.46 -23.03,11.32 -35.44,14.13l-495.67 112.29c-58.63,13.28 -106.62,-23.82 -106.62,-82.47l0 -300.23c0,-11.46 1.82,-22.9 5.21,-34.03l6.63 -1.5 625.9 291.81zm-861.81 732.1l297.41 -67.37 0 199.81 -297.41 67.37 0 -199.82zm0 382.98l297.41 -67.37 0 199.82 -297.41 67.37 0 -199.82zm0 424.61l297.41 -67.37 0 199.82 -297.41 67.37 0 -199.82zm401.47 -515.56l274.74 -62.24 0 199.82 -274.74 62.24 0 -199.82zm0 -378.81l274.74 -62.24 0 199.82 -274.74 62.24 0 -199.82zm0 803.43l274.74 -62.24 0 199.81 -274.74 62.24 0 -199.81z"/>
    <path class="fil2" d="M1899.49 1094.12l986.48 -151.7 0 202.86 -798.93 111.11c-48.65,6.75 -87.66,24.81 -87.66,76.19l0 2103.25c0,51.36 39.45,101.17 87.66,110.65l798.93 156.99 0 202.85 -986.48 -193.84c-59.53,-11.7 -108.23,-69.98 -108.23,-129.5l0 -2401.91c0,-59.53 48.27,-77.74 108.23,-86.96zm268.37 1041.38l718.11 141.11 0 199.82 -718.11 -141.11 0 -199.82zm0 382.98l718.11 141.11 0 199.82 -718.11 -141.11 0 -199.82zm0 424.61l718.11 141.11 0 199.82 -718.11 -141.12 0 -199.81z"/>
   </g>
   <polygon class="fil3" points="-0,5003.03 1207.77,5003.03 1207.77,5228.13 327.31,5228.13 327.31,5365.76 1163.59,5365.76 1163.59,5575.09 327.31,5575.09 327.31,5729.93 1214.32,5729.93 1214.32,5959.32 -0,5959.32 "/>
   <path id="1" class="fil3" d="M2502.57 5959.32l-93.56 -162.01 -721.44 0 -93.57 162.01 -379.68 0 578.81 -956.29 516.05 0 570.61 956.29 -377.22 0zm-210.02 -371.33l-210.31 -362.73 -66.27 0 -210.31 362.73 486.89 0z"/>
   <path id="2" class="fil3" d="M2890.98 5642.47l321.85 0c-0.55,47.55 10.36,78.38 32.72,91.99 11.74,6.69 25.1,10.99 40.1,13.39 14.73,2.39 40.92,4.06 78.01,5.02 18.82,0.47 79.65,0.96 182.75,1.43 141.56,-0.47 223.38,-1.19 245.76,-2.15 42,-2.87 69.82,-7.65 83.18,-14.58 18.55,-10.27 27.82,-33.21 27.82,-68.81 0,-24.37 -5.72,-41.34 -17.45,-51.14 -16.1,-13.61 -54.28,-20.79 -114.28,-21.74 -41.46,0 -128.47,-2.87 -260.49,-8.37 -136.38,-5.74 -224.75,-8.84 -265.11,-9.8 -105.56,-2.86 -179.76,-13.61 -222.85,-32.26 -55.38,-23.89 -91.65,-64.52 -108.56,-122.1 -9.54,-31.78 -14.46,-73.36 -14.46,-124.73 0,-108.49 23.46,-184.95 70.38,-229.39 35.18,-33.46 88.36,-55.68 159.83,-66.43 64.37,-9.33 217.66,-14.1 460.14,-14.1 157.65,0 268.94,4.06 333.86,11.94 85.92,10.76 147.56,29.4 185.47,56.16 51.01,36.8 76.64,102.99 76.64,198.34 0,10.27 0,26.52 0,48.98l-322.12 0c-1.09,-22.93 -3.01,-38.71 -5.46,-47.79 -7.64,-26.05 -32.18,-40.86 -73.64,-43.97 -36.84,-2.87 -126.29,-4.3 -268.68,-4.3 -140.47,0 -223.93,3.58 -250.11,10.51 -29.19,8.37 -43.92,30.11 -43.92,65.24 0,33.45 15.55,54.01 46.38,61.65 26.18,5.97 143.47,11.71 352.13,17.45 189.01,4.54 309.58,10.51 361.95,17.44 52.65,6.93 94.64,17.44 125.74,31.55 31.1,14.1 55.92,33.92 74.75,59.5 28.09,37.99 42.26,98.92 42.26,182.79 0,93.91 -13.91,162.73 -41.46,206.7 -27.82,43.49 -73.09,73.12 -135.83,88.89 -61.91,16.01 -232.12,23.9 -510.87,23.9 -169.38,0 -291.57,-4.06 -366.87,-11.95 -91.65,-9.32 -157.38,-27.48 -197.21,-54.72 -43.09,-28.92 -68.74,-70.02 -76.92,-122.82 -4.08,-25.81 -6.27,-56.16 -6.27,-91.28l0.83 -50.42z"/>
   <polygon id="3" class="fil3" points="4205.67,5003.03 4642.9,5003.03 4998.31,5386.31 5338.99,5003.03 5772.12,5003.03 5175.06,5620.96 5175.06,5959.32 4831.37,5959.32 4831.37,5620.96 "/>
   <path class="fil3" d="M355.67 6103.58l568.91 0 0 128.89 -209.38 0 0 376.8 -150.15 0 0 -376.8 -209.38 0 0 -128.89zm478.57 147.08l137 0 94.93 260.56 106.1 -260.56 137.93 0 -177.54 404.98c-16.8,37.78 -27.84,61.04 -33.13,70.01 -12.11,19.96 -30.43,32.86 -54.99,38.79 -16.8,4.17 -36.07,6.32 -57.92,6.32 -28.67,0 -47.47,-0.63 -56.39,-1.9l0 -92.61c5.05,-0.26 14.32,-0.38 27.84,-0.38 25.26,0.26 43.24,-6.69 53.69,-21.1 7.64,-10.62 14.81,-25.78 21.74,-45.49l-50.64 0 -148.62 -358.61zm494.99 507.96l0 -507.96 117.73 0 0 48.52 6.69 0c7.88,-16.3 17.51,-27.92 28.91,-35.13 15.4,-9.6 32.54,-15.54 51.58,-18.07 21.62,-2.9 45.35,-4.42 71.32,-4.42 52.87,0 93.76,5.18 122.43,15.54 31.14,11.37 51.58,32.6 61.21,63.93 6.94,22.75 10.34,59.65 10.34,110.94 0,44.61 -2.7,77.09 -8.23,97.3 -10.33,38.42 -32.42,63.57 -66.38,75.44 -25.73,9.1 -66.97,13.64 -123.95,13.64 -37.36,0 -64.73,-2.65 -82.12,-8.08 -25.73,-7.71 -45.36,-23.38 -58.87,-47.25l-5.87 0 0 195.6 -124.79 0zm237.22 -416.22c-50.63,0 -82.12,5.68 -94.23,17.06 -12.1,11.37 -18.2,36.52 -18.2,75.56 0,21.36 2.11,37.4 6.21,48.02 5.65,14.91 18.69,24.51 38.77,28.94 16.81,3.66 38.77,5.56 66.03,5.56 45.82,0 75.55,-4.93 89.3,-14.79 8.92,-6.44 14.8,-16.67 17.62,-30.7 1.76,-10.23 2.7,-26.41 2.7,-48.91 0,-21.23 -1.75,-36.52 -5.17,-45.99 -6.23,-15.79 -20.67,-26.03 -43.59,-30.7 -13.16,-2.65 -32.9,-4.04 -59.46,-4.04zm280.11 -91.75l124.78 0 0 358.61 -124.78 0 0 -358.61zm0 -147.08l124.78 0 0 100.85 -124.78 0 0 -100.85zm181.06 147.08l117.02 0 0 54.59 7.05 0c8,-16.68 18.1,-29.44 30.2,-38.28 23.61,-16.94 60.75,-25.4 111.15,-25.4 49.12,0 86.48,5.56 112.21,16.67 13.98,6.07 26.79,15.68 38.53,28.56 11.64,13.01 19.97,26.91 25.03,41.95 6.93,20.48 10.58,43.47 11.04,68.74 0.24,12.14 0.35,28.43 0.35,48.91l0 162.88 -124.78 0 0 -162.88c0,-28.94 -1.17,-48.91 -3.4,-60.02 -3.64,-18.7 -14.22,-30.96 -31.61,-36.65 -14.92,-4.93 -36.31,-7.33 -64.27,-7.33 -43,0 -71.56,7.83 -85.53,23.62 -9.41,10.62 -15.15,27.56 -17.15,50.67 -0.7,7.96 -1.05,24.38 -1.05,49.27l0 143.3 -124.78 0 0 -358.61zm850.77 0l117.02 0 0 329.55c0,35.26 -1.41,59.89 -4.11,73.66 -8.93,46.38 -31.73,78.22 -68.15,95.52 -31.83,15.17 -89.17,22.87 -172.01,22.87 -60.63,0 -105.39,-4.17 -134.53,-12.5 -50.04,-14.53 -77.66,-53.83 -82.95,-117.9l127.01 0 1.05 3.67c2,7.08 4.12,12.01 6.23,14.78 5.88,7.59 17.04,12.77 33.37,15.8 11.04,1.89 28.2,2.91 51.58,2.91 41.12,0 69.55,-3.16 85.42,-9.6 16.44,-6.7 26.55,-19.34 30.32,-38.16 1.75,-9.86 2.7,-26.79 2.7,-51.05l0 -31.59 -4.82 0c-10.33,17.56 -21.74,30.07 -34.07,37.52 -13.75,7.96 -29.02,13.01 -45.82,15.29 -17.5,2.15 -36.77,3.28 -57.81,3.28 -46.41,0 -81.41,-2.65 -105.15,-7.84 -40.65,-9.09 -68.26,-29.18 -82.95,-60.27 -10.33,-21.61 -15.51,-61.15 -15.51,-118.65 0,-55.22 6.59,-93.89 19.63,-116.13 17.04,-29.31 47.23,-47.51 90.58,-54.33 24.56,-3.91 56.17,-5.93 94.7,-5.93 49.58,0 84.83,5.68 105.74,16.93 12.92,7.21 25.03,20.22 36.55,39.18l5.99 0 0 -47.02zm-114.79 91.75c-45.95,0 -76.26,4.42 -90.95,13.39 -9.63,5.82 -15.86,14.92 -18.92,26.91 -2.46,9.73 -3.76,23.89 -3.76,42.71 0,24.39 3.17,41.83 9.63,52.19 7.52,12.13 23.27,19.84 47.12,23.38 14.69,1.89 32.07,2.9 52.04,2.9 47.23,0 78.14,-5.43 92.58,-16.3 8.7,-6.45 14.34,-15.92 16.81,-28.56 1.64,-7.58 2.46,-19.71 2.46,-36.26 0,-24.89 -2.58,-42.33 -7.87,-52.18 -5.99,-11.63 -18.92,-19.46 -38.89,-23.38 -14.93,-3.16 -35.01,-4.8 -60.27,-4.8zm466.91 -238.83l496.3 0 0 119.04 -353.19 0 0 95.53 336.26 0 0 116 -336.26 0 0 175.13 -143.11 0 0 -505.7zm755.84 137.99c63.8,0 111.85,3.66 144.17,11.12 34.77,7.83 59.22,26.4 73.19,55.85 7.88,16.17 12.45,33.48 13.75,51.68 1.41,17.06 2.11,37.91 2.11,62.54 0,48.77 -2.23,82.51 -6.58,100.96 -9.4,40.68 -32.08,67.35 -68.03,80.23 -27.38,9.6 -80.95,14.4 -160.96,14.4 -70.74,0 -121.14,-3.79 -151.45,-11.5 -36.43,-9.1 -60.63,-30.45 -72.62,-63.93 -5.4,-15.79 -8.81,-32.35 -9.87,-49.54 -1.41,-21.23 -2.11,-44.73 -2.11,-70.63 0,-45.11 2.58,-76.57 7.87,-94.26 11.52,-37.28 35.26,-61.67 71.2,-73.29 28.92,-9.1 82.02,-13.64 159.33,-13.64zm-2.7 100.84c-40.3,0 -67.68,3.41 -82.13,10.35 -11.4,5.69 -19.16,15.29 -23.27,28.95 -3.64,11.5 -5.52,28.68 -5.52,51.42 0,25.14 2.23,42.71 6.59,52.57 6.1,13.52 20.44,22.74 42.89,27.42 15.03,2.91 35.96,4.43 62.74,4.43 43.7,0 72.73,-4.55 86.83,-13.65 9.63,-6.18 16.1,-15.67 19.27,-28.55 2.45,-10.11 3.76,-25.65 3.76,-46.62 0,-27.43 -2.82,-46.5 -8.58,-57.12 -6.46,-12.25 -20.68,-20.6 -42.89,-24.77 -15.63,-2.91 -35.49,-4.42 -59.69,-4.42zm283.27 -91.75l117.02 0 0 53.84 6.7 0c9.4,-18.2 20.79,-31.72 34.06,-40.83 21.86,-14.78 53.46,-22.1 94.83,-22.1 55.1,0 92.46,13.4 111.97,40.17 15.39,20.98 23.15,53.96 23.15,98.94 0,5.93 -0.35,15.67 -1.06,29.19l-117.37 0c0,-20.85 -2,-35.51 -6.11,-43.85 -8.11,-15.79 -27.97,-23.62 -59.58,-23.62 -29.61,0 -50.63,8.59 -62.97,25.9 -7.88,10.74 -12.81,27.55 -14.81,50.17 -0.71,8.71 -1.05,22.61 -1.05,41.81l0 148.99 -124.78 0 0 -358.61zm421.33 0l117.03 0 0 53.84 6.69 0c17.85,-41.96 62.98,-62.93 135.24,-62.93 51.33,0 90.58,10.61 117.61,31.84 12.69,9.85 23.85,24.26 33.72,43.34 6.69,-17.81 15.52,-31.6 26.55,-41.45 13.04,-11.88 28.79,-20.48 47.12,-25.78 18.46,-5.3 41.83,-7.96 70.39,-7.96 45.22,0 80.6,6.69 106.09,19.96 13.74,7.45 25.84,17.69 36.42,30.7 10.58,13.14 17.98,27.04 22.09,41.83 6.22,21.99 9.28,57.87 9.28,107.66l0 167.55 -124.77 0 0 -167.55c0,-27.67 -1.17,-47.13 -3.41,-58.51 -5.28,-27.16 -32.32,-40.81 -80.95,-40.81 -36.43,0 -61.1,7.57 -74.03,22.62 -9.4,10.86 -15.15,28.05 -17.14,51.42 -0.95,10.62 -1.41,25.65 -1.41,44.86l0 147.97 -124.78 0 0 -167.55c0,-27.43 -0.83,-46 -2.35,-55.6 -3.29,-18.33 -13.16,-30.44 -29.61,-36.65 -12.82,-4.67 -29.5,-7.07 -50.17,-7.07 -37.36,0 -62.75,7.33 -76.26,21.86 -9.17,9.86 -14.93,26.66 -17.15,50.42 -0.94,10.36 -1.41,25.9 -1.41,46.62l0 147.97 -124.78 0 0 -358.61z"/>
   <polygon class="fil4" points="22.42,6952.88 22.42,7141.41 232.15,7141.41 232.15,7096.19 78.95,7096.19 78.95,7066.23 223.39,7066.23 223.39,7024.67 78.95,7024.67 78.95,6997.26 231.02,6997.26 231.02,6952.88 "/>
   <polygon id="1" class="fil4" points="250.24,6952.88 250.24,7141.41 308.75,7141.41 307.34,7000.65 313.56,7000.65 412.77,7141.41 512.54,7141.41 512.54,6952.88 454.04,6952.88 455.45,7093.36 449.51,7093.36 350.86,6952.88 "/>
   <polygon id="2" class="fil4" points="538.82,6952.88 538.82,7141.41 596.21,7141.41 596.21,7076.12 731.03,7076.12 731.03,7032.88 596.21,7032.88 596.21,6997.26 738.1,6997.26 738.1,6952.88 "/>
   <path id="3" class="fil4" d="M751.09 7141.41l57.39 0 0 -47.77 81.12 0c23.74,0 27.98,0.56 31.94,5.09 4.52,4.8 5.65,11.58 5.65,32.79l0 9.89 56.53 0 0 -17.53c1.13,-43.53 -3.95,-52.01 -33.07,-55.4 11.3,-1.7 16.67,-3.68 22.04,-7.92 10.17,-7.63 13,-18.37 13,-46.36 0,-32.78 -4.24,-45.22 -18.66,-53.98 -12.15,-7.35 -12.15,-7.35 -77.16,-7.35l-138.78 0 0 188.53zm57.39 -94.97l0 -46.36 80.83 0c26.01,0.29 26.86,0.29 30.81,1.98 5.93,2.54 8.2,7.91 8.2,20.63 0,11.87 -1.7,17.52 -6.22,20.35 -3.96,2.83 -3.96,2.83 -32.79,3.39l-80.83 0z"/>
   <polygon id="4" class="fil4" points="1005.48,6952.88 1005.48,7141.41 1215.21,7141.41 1215.21,7096.19 1062.01,7096.19 1062.01,7066.23 1206.45,7066.23 1206.45,7024.67 1062.01,7024.67 1062.01,6997.26 1214.08,6997.26 1214.08,6952.88 "/>
   <polygon id="5" class="fil4" points="1233.3,6952.88 1233.3,7141.41 1291.81,7141.41 1290.4,7000.65 1296.62,7000.65 1395.83,7141.41 1495.6,7141.41 1495.6,6952.88 1437.1,6952.88 1438.51,7093.36 1432.57,7093.36 1333.92,6952.88 "/>
   <polygon id="6" class="fil4" points="1508.6,6952.88 1508.6,7000.93 1592.55,7000.93 1592.55,7141.41 1652.76,7141.41 1652.76,7000.93 1736.7,7000.93 1736.7,6952.88 "/>
   <path id="7" class="fil4" d="M1929.19 7141.41l65.29 0 -98.65 -188.53 -89.32 0 -99.77 188.53 65.57 0 16.11 -31.94 124.65 0 16.11 31.94zm-36.18 -73.21l-84.23 0 36.47 -71.51 11.31 0 36.46 71.51z"/>
   <polygon id="8" class="fil4" points="2002.95,6952.88 2002.95,7141.41 2059.48,7141.41 2058.07,7000.37 2068.25,7000.37 2139.19,7141.41 2186.97,7141.41 2257.91,7000.37 2267.52,7000.37 2266.1,7141.41 2322.63,7141.41 2322.63,6952.88 2219.18,6952.88 2162.94,7075.27 2106.97,6952.88 "/>
   <polygon id="9" class="fil4" points="2348.92,6952.88 2348.92,7141.41 2558.65,7141.41 2558.65,7096.19 2405.45,7096.19 2405.45,7066.23 2549.89,7066.23 2549.89,7024.67 2405.45,7024.67 2405.45,6997.26 2557.52,6997.26 2557.52,6952.88 "/>
   <polygon id="10" class="fil4" points="2576.73,6952.88 2576.73,7141.41 2635.24,7141.41 2633.83,7000.65 2640.06,7000.65 2739.26,7141.41 2839.04,7141.41 2839.04,6952.88 2780.53,6952.88 2781.94,7093.36 2776.01,7093.36 2677.36,6952.88 "/>
   <polygon id="11" class="fil4" points="2852.04,6952.88 2852.04,7000.93 2935.99,7000.93 2935.99,7141.41 2996.19,7141.41 2996.19,7000.93 3080.14,7000.93 3080.14,6952.88 "/>
   <path id="12" class="fil4" d="M3222.6 6950.05c-78.86,0 -96.38,1.98 -110.8,13 -14.41,11.02 -18.65,30.25 -18.65,82.82 0,55.4 3.95,74.05 18.65,85.36 14.42,11.02 31.94,13 111.36,13 78.01,0 95.82,-1.98 110.24,-13 14.41,-11.02 18.65,-29.96 18.65,-84.23 0,-53.99 -4.24,-72.93 -18.65,-83.95 -14.42,-11.02 -31.94,-13 -110.8,-13zm0 48.9c52.58,0 58.79,0.85 65.29,8.48 5.09,6.22 6.78,16.97 6.78,44.95 0,22.89 -1.98,31.09 -8.48,36.18 -7.63,5.65 -16.96,6.78 -63.04,6.78 -47.48,0 -56.53,-0.85 -64.16,-6.78 -6.78,-5.37 -8.48,-13 -8.48,-36.47 0,-24.03 1.13,-34.76 4.53,-41.27 5.65,-11.02 11.02,-11.87 67.55,-11.87z"/>
   <path id="13" class="fil4" d="M3649.69 7141.41l65.29 0 -98.65 -188.53 -89.32 0 -99.77 188.53 65.57 0 16.11 -31.94 124.65 0 16.11 31.94zm-36.18 -73.21l-84.23 0 36.47 -71.51 11.31 0 36.46 71.51z"/>
   <path id="14" class="fil4" d="M3846.98 6950.05c-78.86,0 -96.38,1.98 -110.8,13 -14.41,11.02 -18.65,30.25 -18.65,82.82 0,55.4 3.95,74.05 18.65,85.36 14.42,11.02 31.94,13 111.36,13 78.01,0 95.82,-1.98 110.24,-13 14.41,-11.02 18.65,-29.96 18.65,-84.23 0,-53.99 -4.24,-72.93 -18.65,-83.95 -14.42,-11.02 -31.94,-13 -110.8,-13zm0 48.9c52.58,0 58.79,0.85 65.29,8.48 5.09,6.22 6.78,16.97 6.78,44.95 0,22.89 -1.98,31.09 -8.48,36.18 -7.63,5.65 -16.96,6.78 -63.04,6.78 -47.48,0 -56.53,-0.85 -64.16,-6.78 -6.78,-5.37 -8.48,-13 -8.48,-36.47 0,-24.03 1.13,-34.76 4.53,-41.27 5.65,-11.02 11.02,-11.87 67.55,-11.87z"/>
   <path id="15" class="fil4" d="M4248.64 7068.77c-0.29,27.98 -1.13,28.27 -64.16,28.27 -60.49,0 -61.34,-0.57 -61.34,-48.9 0,-28.55 2.26,-39.57 9.05,-45.22 5.65,-4.53 16.11,-5.66 52.01,-5.66 36.18,0 52.85,1.7 57.09,5.37 3.39,2.83 3.96,5.37 4.53,17.8l57.38 0 0 -9.33c0,-30.25 -5.65,-44.09 -21.77,-52.29 -12.99,-6.78 -30.52,-8.76 -80.83,-8.76 -98.65,0 -119.28,4.81 -129.46,30.25 -4.24,10.46 -5.37,26.01 -5.37,68.12 0,24.03 0.56,39.56 1.41,48.04 2.27,19.22 7.92,29.68 20.36,36.75 15.26,8.75 39,11.02 112.77,11.02 41.83,0 62.47,-1.7 77.73,-6.51 20.92,-6.78 28.84,-20.63 28.84,-51.16 0,-2.83 -0.29,-7.07 -0.57,-17.8l-57.65 0z"/>
   <path id="16" class="fil4" d="M4452.99 6950.05c-78.86,0 -96.38,1.98 -110.8,13 -14.41,11.02 -18.65,30.25 -18.65,82.82 0,55.4 3.95,74.05 18.65,85.36 14.42,11.02 31.94,13 111.36,13 78.01,0 95.82,-1.98 110.24,-13 14.41,-11.02 18.65,-29.96 18.65,-84.23 0,-53.99 -4.24,-72.93 -18.65,-83.95 -14.42,-11.02 -31.94,-13 -110.8,-13zm0 48.9c52.58,0 58.79,0.85 65.29,8.48 5.09,6.22 6.78,16.97 6.78,44.95 0,22.89 -1.98,31.09 -8.48,36.18 -7.63,5.65 -16.96,6.78 -63.04,6.78 -47.48,0 -56.53,-0.85 -64.16,-6.78 -6.78,-5.37 -8.48,-13 -8.48,-36.47 0,-24.03 1.13,-34.76 4.53,-41.27 5.65,-11.02 11.02,-11.87 67.55,-11.87z"/>
   <polygon id="17" class="fil4" points="4585.84,6952.88 4679.11,7141.41 4767.02,7141.41 4859.16,6952.88 4796.41,6952.88 4728.58,7093.92 4717.56,7093.92 4648.87,6952.88 "/>
   <polygon id="18" class="fil4" points="4868.49,6952.88 4868.49,7141.41 4928.69,7141.41 4928.69,6952.88 "/>
   <path id="19" class="fil4" d="M4955.26 7141.41l135.96 0c63.6,0 80.27,-2.83 94.68,-15.83 13.85,-12.72 18.09,-31.93 18.09,-81.12 0,-30.81 -1.13,-42.68 -5.37,-55.96 -5.65,-17.53 -18.09,-28.27 -36.74,-31.94 -16.11,-3.39 -22.61,-3.68 -70.66,-3.68l-135.96 0 0 188.53zm56.53 -48.05l0 -93.27 79.43 0c35.05,0 42.68,1.13 48.61,7.92 5.65,6.21 7.63,16.67 7.63,39.85 0,42.68 -3.68,45.51 -55.68,45.51l-79.99 0z"/>
   <polygon id="20" class="fil4" points="5382.36,6952.88 5313.39,7011.96 5345.05,7048.99 5400.73,7002.07 5415.71,7002.07 5415.71,7141.41 5473.09,7141.41 5473.09,6952.88 "/>
   <path id="21" class="fil4" d="M5530.47 7086.58c0,30.52 2.83,40.14 14.99,47.49 11.87,7.06 30.52,9.6 71.79,9.6 24.03,0 54.27,-0.85 68.11,-2.26 27.42,-2.26 40.14,-6.22 49.47,-14.7 11.87,-10.74 14.7,-24.3 14.7,-72.64 0,-64.72 -3.12,-80.27 -18.09,-90.73 -13.29,-9.33 -39.29,-12.72 -96.95,-12.72 -94.97,0 -108.82,7.92 -108.82,62.47 0,53.99 12.72,62.47 94.68,62.47 47.2,0 61.9,-3.39 74.06,-17.24 -0.29,16.4 -0.85,25.16 -1.98,29.96 -3.39,10.74 -13.57,13 -61.62,13 -19.21,0 -32.79,-0.85 -38.44,-2.27 -5.65,-1.7 -6.5,-3.11 -7.07,-10.17l-0.28 -2.26 -54.56 0zm105.15 -93.56c23.45,0 42.68,0.85 48.33,2.54 7.34,1.98 9.9,6.22 9.9,17.24 0,9.9 -1.98,14.41 -7.92,16.96 -4.53,2.27 -23.46,3.39 -54.56,3.39 -46.63,0 -50.02,-1.41 -50.02,-19.79 0,-18.65 4.8,-20.35 54.27,-20.35z"/>
  </g>
 </g>
</svg>
